<svg width="384" height="383" viewBox="0 0 384 383" fill="none" xmlns="http://www.w3.org/2000/svg">
<path d="M282.789 344.108C276.989 343.108 266.789 341.508 256.689 339.408C253.289 338.708 251.389 339.708 249.589 342.308C245.789 347.808 241.889 353.208 237.889 358.508C213.589 390.908 168.289 390.508 144.389 357.808C140.789 352.808 137.089 347.908 133.689 342.808C131.689 339.808 129.489 338.808 125.789 339.508C115.989 341.308 106.089 343.608 96.1887 344.008C62.1887 345.308 34.3887 314.408 38.7887 280.708C39.7887 273.108 41.0887 265.508 42.8887 258.108C44.0887 253.408 42.6887 250.708 38.7887 248.208C33.6887 245.008 28.9887 241.308 24.1887 237.808C-8.31134 213.608 -8.01134 168.308 24.7887 144.408C29.8887 140.708 34.9887 136.908 40.2887 133.408C43.2887 131.408 43.9887 129.108 43.2887 125.808C41.7887 118.608 40.2887 111.408 39.2887 104.208C32.8887 60.1075 74.3887 33.1075 106.689 39.5075C112.689 40.7075 118.789 41.7075 124.889 42.9075C129.389 43.9075 132.489 42.2075 135.089 38.5075C138.889 32.8075 142.789 27.2075 147.089 21.9075C171.689 -7.89249 214.189 -7.19249 237.689 23.4075C241.789 28.7075 245.789 34.0075 249.389 39.6075C251.489 42.9075 253.689 44.0075 257.689 43.1075C264.189 41.6075 270.789 40.5075 277.289 39.4075C315.989 32.5075 349.789 64.9075 344.089 103.808C343.089 110.708 341.689 117.608 340.089 124.408C338.989 129.008 340.189 132.008 344.089 134.508C350.089 138.408 355.989 142.508 361.589 146.908C389.589 169.608 390.489 210.608 363.289 234.308C356.989 239.708 350.089 244.407 343.189 249.107C340.089 251.207 339.289 253.508 340.089 257.108C341.689 264.408 342.989 271.808 344.089 279.208C349.289 313.008 321.689 344.708 282.789 344.108ZM171.489 221.107C155.289 205.007 139.189 189.008 123.989 173.708C115.189 182.308 106.589 190.708 97.7887 199.308C122.489 224.608 147.289 250.008 172.389 275.708C210.489 237.208 248.089 199.108 285.289 161.508C276.089 152.208 267.289 143.408 258.289 134.408C229.589 163.008 200.789 191.807 171.489 221.107Z" fill="white"/>
</svg>
